<svg width="1130" height="978" viewBox="0 0 1130 978" fill="none" xmlns="http://www.w3.org/2000/svg">
<path fill-rule="evenodd" clip-rule="evenodd" d="M85.888 499.161C85.888 763.323 300.033 977.478 564.199 977.478C828.361 977.478 1042.51 763.323 1042.51 499.161C1042.51 235 828.361 20.8501 564.199 20.8501C300.033 20.8501 85.888 235 85.888 499.161Z" fill="#C2F5FF"/>
<path fill-rule="evenodd" clip-rule="evenodd" d="M1123.82 481.619L1090.83 466.075C1083.74 462.732 1075.91 468.542 1076.64 476.336L1080.16 513.76C1080.9 521.59 1089.73 525.747 1096.05 521.052L1125.52 499.171C1131.69 494.583 1130.78 484.892 1123.82 481.619ZM1086.01 475.455C1085.94 474.78 1086.44 474.408 1086.82 474.584L1119.81 490.13C1120.31 490.365 1120.4 491.258 1119.91 491.619L1090.44 513.501C1090.09 513.756 1089.59 513.517 1089.53 512.879L1086.01 475.455Z" fill="#FEC413"/>
<path d="M29.9996 777.113C28.237 775.477 25.5726 775.397 23.7227 776.841L23.2781 777.233L1.42522 799.021C-0.471173 800.912 -0.475537 803.982 1.41504 805.879C3.16063 807.629 5.91091 807.768 7.81505 806.292L8.27279 805.889L26.8241 787.393L48.1712 807.2C49.877 808.783 52.4372 808.914 54.2846 807.594L54.7695 807.198L74.9393 788.454L97.4571 808.531C99.2672 810.144 101.959 810.157 103.779 808.645L104.214 808.235L124.753 786.412C126.588 784.462 126.495 781.393 124.545 779.558C122.745 777.863 119.992 777.812 118.135 779.348L117.691 779.765L100.391 798.152L78.0948 778.283C76.3831 776.758 73.8649 776.655 72.0455 777.96L71.5679 778.351L51.4708 797.027L29.9996 777.113Z" fill="#F26A38"/>
<path d="M322.728 107.574C321.657 106.537 320.036 106.394 318.812 107.162L318.374 107.493L294.713 128.742L272.509 108.714C271.447 107.756 269.898 107.634 268.711 108.357L268.284 108.668L243.683 129.901L224.411 110.035C223.306 108.896 221.558 108.757 220.297 109.636L219.896 109.967C218.757 111.072 218.618 112.82 219.497 114.081L219.827 114.482L241.196 136.51C242.243 137.589 243.877 137.776 245.126 137.028L245.575 136.704L270.328 115.344L292.568 135.411C293.646 136.385 295.223 136.494 296.414 135.74L296.84 135.416L320.426 114.229L341.019 134.162C342.159 135.265 343.91 135.349 345.143 134.431L345.534 134.088C346.637 132.947 346.721 131.196 345.803 129.963L345.46 129.573L322.728 107.574Z" fill="#4FC6DA"/>
<path fill-rule="evenodd" clip-rule="evenodd" d="M391.585 68.5038C396.429 68.499 400.361 64.5665 400.356 59.7177C400.352 54.8688 396.419 50.9461 391.57 50.9509C386.721 50.9509 382.799 54.8834 382.799 59.7322C382.799 64.5762 386.736 68.5087 391.585 68.5038Z" fill="#F26A38"/>
<path fill-rule="evenodd" clip-rule="evenodd" d="M418.097 68.4849C422.941 68.4801 426.874 64.5476 426.869 59.6988C426.864 54.8499 422.932 50.9272 418.083 50.932C413.234 50.932 409.311 54.8644 409.311 59.7133C409.311 64.5573 413.249 68.4898 418.097 68.4849Z" fill="#F26A38"/>
<path fill-rule="evenodd" clip-rule="evenodd" d="M442.952 68.466C447.801 68.466 451.729 64.5287 451.724 59.6798C451.724 54.831 447.787 50.9082 442.938 50.9131C438.089 50.9179 434.166 54.8455 434.166 59.6944C434.166 64.5432 438.104 68.4708 442.952 68.466Z" fill="#F26A38"/>
<path fill-rule="evenodd" clip-rule="evenodd" d="M162.184 205.778C162.093 207.477 162.745 208.309 163.701 208.959C165.063 209.895 166.325 211.308 167.827 211.629C174.723 213.096 176.876 218.71 179.605 223.931C182.209 228.91 185.795 229.363 188.264 224.364C191.549 217.715 195.7 212.796 202.901 209.964C206.822 208.427 206.787 203.606 202.791 202.059C195.55 199.257 191.323 194.455 188.178 187.649C185.97 182.862 181.939 183.271 179.716 188.058C177.117 193.658 174.492 198.833 167.667 200.666C165.173 201.335 162.755 203.222 162.184 205.778Z" fill="#FEC413"/>
<path fill-rule="evenodd" clip-rule="evenodd" d="M248.591 19.8871C248.513 21.4581 249.1 22.2243 249.973 22.8304C251.209 23.6935 252.353 25.0027 253.726 25.2984C259.99 26.6561 261.945 31.8444 264.427 36.6642C266.789 41.2658 270.052 41.6876 272.292 37.0666C275.279 30.9183 279.051 26.3749 285.602 23.7565C289.161 22.3406 289.127 17.8845 285.496 16.4541C278.916 13.86 275.075 9.42792 272.219 3.13894C270.212 -1.28807 266.551 -0.914707 264.529 3.51715C262.168 8.68604 259.782 13.4721 253.575 15.1595C251.316 15.7801 249.11 17.5306 248.591 19.8871Z" fill="#FEC413"/>
<path fill-rule="evenodd" clip-rule="evenodd" d="M613.124 108.933C613.074 109.877 613.436 110.34 613.967 110.701C614.724 111.221 615.425 112.006 616.26 112.184C620.09 112.999 621.287 116.118 622.803 119.018C624.25 121.785 626.242 122.036 627.613 119.259C629.438 115.565 631.745 112.832 635.745 111.259C637.923 110.405 637.904 107.727 635.684 106.868C631.661 105.311 629.313 102.643 627.566 98.862C626.339 96.2025 624.099 96.4296 622.864 99.089C621.42 102.2 619.962 105.075 616.171 106.093C614.785 106.466 613.442 107.513 613.124 108.933Z" fill="#FEC413"/>
<path fill-rule="evenodd" clip-rule="evenodd" d="M677.604 459.959C677.546 461.055 677.958 461.589 678.564 462.011C679.427 462.612 680.227 463.519 681.178 463.732C685.551 464.677 686.914 468.295 688.64 471.655C690.289 474.865 692.563 475.156 694.124 471.936C696.209 467.65 698.842 464.483 703.405 462.655C705.888 461.671 705.863 458.563 703.337 457.564C698.74 455.76 696.069 452.667 694.071 448.284C692.674 445.195 690.124 445.462 688.713 448.545C687.064 452.153 685.401 455.484 681.081 456.662C679.5 457.099 677.968 458.311 677.604 459.959Z" fill="#4FC6DA"/>
<path fill-rule="evenodd" clip-rule="evenodd" d="M275.147 430.866C275.089 431.962 275.501 432.495 276.107 432.917C276.97 433.519 277.77 434.425 278.721 434.639C283.094 435.584 284.457 439.201 286.183 442.562C287.832 445.772 290.106 446.063 291.667 442.843C293.752 438.556 296.385 435.39 300.948 433.562C303.43 432.578 303.406 429.47 300.88 428.471C296.283 426.667 293.611 423.573 291.614 419.19C290.217 416.102 287.667 416.368 286.256 419.452C284.607 423.06 282.944 426.391 278.624 427.569C277.043 428.005 275.511 429.218 275.147 430.866Z" fill="#F26A38"/>
<path fill-rule="evenodd" clip-rule="evenodd" d="M976.791 167.12C976.74 168.064 977.102 168.526 977.634 168.887C978.39 169.407 979.091 170.192 979.926 170.37C983.757 171.185 984.953 174.305 986.469 177.205C987.916 179.971 989.908 180.223 991.279 177.446C993.104 173.752 995.411 171.019 999.411 169.446C1001.59 168.592 1001.57 165.913 999.35 165.054C995.328 163.497 992.979 160.83 991.232 157.048C990.005 154.389 987.766 154.616 986.531 157.275C985.087 160.386 983.629 163.262 979.837 164.28C978.452 164.652 977.108 165.7 976.791 167.12Z" fill="#FEC413"/>
<path fill-rule="evenodd" clip-rule="evenodd" d="M252.03 800.063C218.555 799.975 191.351 827.049 191.268 860.525C191.186 894.001 218.254 921.201 251.728 921.284C285.198 921.372 312.402 894.298 312.49 860.822C312.568 827.346 285.5 800.146 252.03 800.063Z" fill="#F26A38"/>
<path fill-rule="evenodd" clip-rule="evenodd" d="M785.82 110.179C785.16 144.907 812.775 173.593 847.502 174.257C882.225 174.921 910.916 147.302 911.575 112.575C912.239 77.847 884.62 49.1612 849.897 48.4969C815.17 47.8423 786.484 75.4566 785.82 110.179Z" fill="#B789BE"/>
</svg>
