<svg width="1017" height="512" viewBox="0 0 1017 512" fill="none" xmlns="http://www.w3.org/2000/svg">
<path fill-rule="evenodd" clip-rule="evenodd" d="M85.7796 446.494C85.7796 680.408 275.194 870.042 508.852 870.042C742.505 870.042 931.919 680.408 931.919 446.494C931.919 212.579 742.505 22.9493 508.852 22.9493C275.194 22.9493 85.7796 212.579 85.7796 446.494Z" fill="#C2F5FF"/>
<path fill-rule="evenodd" clip-rule="evenodd" d="M1003.84 430.96L974.661 417.195C968.387 414.236 961.464 419.38 962.113 426.282L965.226 459.421C965.877 466.354 973.688 470.035 979.276 465.877L1005.35 446.502C1010.8 442.44 1009.99 433.858 1003.84 430.96ZM970.397 425.501C970.34 424.903 970.783 424.574 971.114 424.73L1000.3 438.496C1000.74 438.704 1000.81 439.495 1000.38 439.815L974.314 459.191C974.011 459.417 973.563 459.205 973.51 458.64L970.397 425.501Z" fill="#FEC413"/>
<path d="M295.267 99.7429C294.32 98.825 292.886 98.6983 291.804 99.3782L291.416 99.6711L270.487 118.487L250.848 100.753C249.908 99.9042 248.538 99.796 247.488 100.437L247.111 100.712L225.351 119.513L208.305 101.923C207.327 100.914 205.781 100.791 204.666 101.569L204.311 101.862C203.304 102.84 203.181 104.388 203.958 105.505L204.25 105.86L223.151 125.366C224.077 126.322 225.522 126.487 226.627 125.825L227.024 125.538L248.919 106.624L268.59 124.393C269.544 125.255 270.939 125.352 271.992 124.684L272.369 124.397L293.231 105.636L311.445 123.287C312.454 124.264 314.003 124.338 315.094 123.525L315.439 123.221C316.415 122.211 316.489 120.661 315.677 119.569L315.374 119.223L295.267 99.7429Z" fill="#4FC6DA"/>
<path fill-rule="evenodd" clip-rule="evenodd" d="M356.172 65.1467C360.456 65.1424 363.935 61.6602 363.93 57.3665C363.926 53.0729 360.448 49.5993 356.159 49.6036C351.87 49.6036 348.4 53.0857 348.4 57.3794C348.4 61.6688 351.883 65.1509 356.172 65.1467Z" fill="#F26A38"/>
<path fill-rule="evenodd" clip-rule="evenodd" d="M379.622 65.1299C383.907 65.1256 387.385 61.6434 387.381 57.3497C387.377 53.0561 383.899 49.5825 379.61 49.5868C375.321 49.5868 371.851 53.069 371.851 57.3626C371.851 61.652 375.334 65.1342 379.622 65.1299Z" fill="#F26A38"/>
<path fill-rule="evenodd" clip-rule="evenodd" d="M401.607 65.1131C405.896 65.1131 409.37 61.6267 409.366 57.333C409.366 53.0394 405.883 49.5658 401.594 49.5701C397.305 49.5744 393.836 53.0522 393.836 57.3459C393.836 61.6396 397.318 65.1174 401.607 65.1131Z" fill="#F26A38"/>
<path fill-rule="evenodd" clip-rule="evenodd" d="M153.264 186.702C153.184 188.207 153.76 188.944 154.606 189.52C155.81 190.348 156.927 191.6 158.256 191.884C164.355 193.183 166.259 198.154 168.674 202.777C170.977 207.186 174.148 207.587 176.332 203.161C179.237 197.273 182.909 192.917 189.279 190.41C192.747 189.049 192.716 184.779 189.181 183.41C182.777 180.929 179.038 176.677 176.256 170.65C174.303 166.411 170.737 166.773 168.771 171.012C166.472 175.97 164.151 180.553 158.114 182.176C155.908 182.769 153.769 184.439 153.264 186.702Z" fill="#FEC413"/>
<path fill-rule="evenodd" clip-rule="evenodd" d="M229.692 22.0966C229.623 23.4877 230.142 24.1661 230.914 24.7029C232.008 25.4671 233.02 26.6264 234.234 26.8883C239.775 28.0906 241.503 32.6848 243.699 36.9527C245.788 41.0274 248.674 41.4009 250.656 37.3091C253.298 31.8647 256.635 27.8415 262.429 25.5229C265.577 24.2692 265.547 20.3233 262.335 19.0567C256.515 16.7596 253.118 12.835 250.592 7.2661C248.816 3.34599 245.578 3.6766 243.789 7.60101C241.701 12.1781 239.591 16.4161 234.101 17.9103C232.102 18.4599 230.151 20.0099 229.692 22.0966Z" fill="#B9D531"/>
<path fill-rule="evenodd" clip-rule="evenodd" d="M552.126 100.947C552.082 101.783 552.402 102.192 552.872 102.512C553.541 102.972 554.161 103.668 554.9 103.825C558.288 104.547 559.346 107.309 560.687 109.877C561.967 112.327 563.729 112.55 564.942 110.091C566.556 106.82 568.596 104.399 572.134 103.006C574.061 102.25 574.044 99.8785 572.08 99.1176C568.522 97.7394 566.445 95.377 564.9 92.0288C563.815 89.6738 561.834 89.8749 560.741 92.2297C559.464 94.9846 558.175 97.5307 554.821 98.4319C553.595 98.7617 552.407 99.6896 552.126 100.947Z" fill="#FEC413"/>
<path fill-rule="evenodd" clip-rule="evenodd" d="M609.159 411.78C609.108 412.751 609.472 413.223 610.009 413.596C610.772 414.129 611.48 414.932 612.32 415.121C616.189 415.958 617.394 419.161 618.921 422.137C620.379 424.979 622.391 425.237 623.772 422.386C625.616 418.59 627.945 415.786 631.98 414.167C634.176 413.296 634.155 410.544 631.92 409.659C627.855 408.062 625.491 405.323 623.724 401.441C622.489 398.706 620.233 398.942 618.985 401.673C617.527 404.867 616.056 407.817 612.234 408.861C610.836 409.247 609.481 410.32 609.159 411.78Z" fill="#4FC6DA"/>
<path fill-rule="evenodd" clip-rule="evenodd" d="M253.181 386.018C253.13 386.989 253.494 387.461 254.03 387.834C254.794 388.367 255.502 389.17 256.342 389.359C260.211 390.196 261.416 393.399 262.943 396.375C264.401 399.217 266.412 399.475 267.793 396.624C269.638 392.828 271.966 390.024 276.002 388.405C278.198 387.534 278.177 384.782 275.942 383.897C271.876 382.3 269.513 379.56 267.746 375.679C266.511 372.944 264.255 373.18 263.007 375.911C261.549 379.105 260.078 382.055 256.256 383.098C254.858 383.485 253.503 384.558 253.181 386.018Z" fill="#F26A38"/>
<path fill-rule="evenodd" clip-rule="evenodd" d="M873.793 152.471C873.749 153.307 874.069 153.716 874.539 154.036C875.208 154.496 875.828 155.192 876.567 155.349C879.955 156.071 881.013 158.833 882.354 161.401C883.634 163.851 885.396 164.073 886.609 161.615C888.223 158.344 890.263 155.923 893.802 154.53C895.728 153.774 895.711 151.402 893.747 150.642C890.189 149.263 888.112 146.901 886.567 143.553C885.482 141.198 883.501 141.399 882.408 143.754C881.131 146.509 879.842 149.055 876.488 149.956C875.262 150.286 874.074 151.214 873.793 152.471Z" fill="#FEC413"/>
<path fill-rule="evenodd" clip-rule="evenodd" d="M704.877 102.05C704.294 132.801 728.719 158.203 759.436 158.791C790.149 159.379 815.526 134.923 816.109 104.171C816.697 73.4201 792.267 48.0187 761.555 47.4305C730.838 46.8509 705.465 71.3033 704.877 102.05Z" fill="#B789BE"/>
</svg>
