<svg width="217" height="217" viewBox="0 0 217 217" fill="none" xmlns="http://www.w3.org/2000/svg">
<path fill-rule="evenodd" clip-rule="evenodd" d="M28.2372 34.844C24.8727 38.7104 21.6103 42.6587 18.7603 46.9096C14.5856 53.1303 10.97 59.6534 8.12826 66.6346C5.10326 74.0764 2.92546 81.7358 1.54128 89.6072C0.484948 95.6158 -0.0350062 101.69 0.00182834 107.826C0.0328789 112.571 0.394531 117.257 0.919956 121.969C1.43381 126.573 2.55802 131.052 3.239 135.614C3.52424 135.953 3.52698 136.27 3.17112 136.561C3.82074 137.412 4.28681 138.291 4.61163 139.382C6.28379 144.947 8.44181 150.311 11.0096 155.554C12.5998 158.799 14.7183 161.746 16.0571 165.115C16.2915 165.706 16.8309 166.172 17.2322 166.693C19.9692 170.259 22.7458 173.795 25.4377 177.396C28.6664 181.714 32.6293 185.259 36.6178 188.867C41.1201 192.937 45.9646 196.441 51.0036 199.731C53.1251 201.113 55.3848 202.282 57.6077 203.497C58.6387 204.063 59.8223 204.374 60.4296 205.515H60.4238C60.7855 205.254 61.0963 205.33 61.3559 205.677C63.5508 206.514 65.7709 207.296 67.9402 208.191C74.8325 211.047 81.962 213.044 89.3173 214.222C92.012 214.651 94.7292 214.958 97.441 215.287C98.2148 215.378 98.9521 215.473 99.4748 216.136C99.9972 215.595 100.639 215.719 101.305 215.75C109.511 216.13 117.64 215.799 125.789 214.41C132.475 213.269 138.912 211.427 145.285 209.284C149.677 207.808 153.84 205.789 157.95 203.616C161.369 201.811 164.519 199.588 167.865 197.756C171.451 195.789 174.66 193.378 177.561 190.715C180.623 187.905 183.993 185.358 186.666 182.158C190.367 177.729 194.358 173.507 197.329 168.51C197.689 167.905 198.209 167.58 198.651 167.125C198.992 166.455 199.278 165.757 199.68 165.133C203.217 159.615 206.06 153.748 208.471 147.671C211.305 140.526 213.409 133.167 214.623 125.572C215.613 119.433 216.109 113.255 216.136 107.029C216.167 100.008 215.354 93.0666 214.005 86.2239C212.84 80.3027 210.989 74.5738 208.815 68.9467C201.67 73.4347 193.689 75.7324 185.698 76.0125C185.99 76.6566 186.343 77.2728 186.571 77.9483C188.772 84.4433 190.727 90.9636 191.567 97.8261C192.008 101.444 191.844 105.019 192.005 108.614C192.151 111.969 191.737 115.287 191.518 118.6C191.125 124.521 188.918 130.097 187.43 135.812C186.267 140.263 183.494 143.943 181.588 148.025C180.005 151.413 177.758 154.276 175.956 157.453C175.274 158.655 174.239 159.364 173.436 160.291C171.22 162.843 169.147 165.508 166.672 167.885C163.594 170.833 160.376 173.566 156.918 175.952C151.861 179.436 146.663 182.684 140.777 184.815C135.729 186.644 130.71 188.471 125.439 189.494C119.812 190.584 114.087 190.842 108.389 191.296C107.855 191.342 107.305 191.159 106.76 191.11C103.627 190.836 100.559 190.087 97.3591 190.307C94.6303 190.495 92.0035 189.418 89.4132 188.748C85.843 187.829 82.2329 186.915 78.8323 185.307C76.1601 184.046 73.3579 183.032 70.6888 181.72C66.528 179.671 62.4747 177.308 59.0031 174.327C55.7236 171.509 51.8935 169.191 49.484 165.421C46.4024 163.536 45.0042 160.169 42.9761 158.047C41.6541 156.328 40.7642 154.912 39.6175 153.748C37.9058 152.004 36.903 149.774 35.9907 147.688C34.3977 144.051 32.8129 140.376 31.3386 136.674C28.9629 130.713 27.5562 124.605 26.9178 118.289C26.5449 114.595 26.1665 110.892 26.1948 107.156C26.2484 100.864 26.6271 94.638 28.6493 88.6151C28.7879 88.2108 28.9714 87.7983 28.9912 87.3828C29.1014 84.8616 29.895 82.5413 30.8582 80.2405C33.426 74.1047 35.7703 67.8444 39.7304 62.4206C42.3941 58.7745 45.041 55.1456 48.1424 51.7793C52.8116 46.7117 58.0004 42.3223 63.6242 38.5381C67.4403 35.9661 71.6066 33.8379 75.8803 31.9103C81.5976 29.3383 87.4954 27.4503 93.5429 26.2661C98.5031 25.2938 103.599 24.8274 108.762 24.9799C113.2 25.1099 117.651 25.011 121.996 25.9154C127.165 26.9894 132.382 28.0183 137.348 29.7763C137.274 21.3537 139.444 12.9822 143.776 5.61108C143.483 5.51214 143.197 5.36237 142.901 5.27196C138.811 4.05094 134.701 2.82992 130.481 1.99338C127.182 1.34041 123.894 0.679206 120.558 0.342824C112.57 -0.459925 78.5893 -1.59601 46.2161 19.3245C39.5581 23.6262 33.4966 28.8013 28.2372 34.844Z" fill="#D3857E"/>
<path fill-rule="evenodd" clip-rule="evenodd" d="M124.15 128.127C117.968 132.564 111.261 134.08 103.838 132.943C97.0362 131.898 91.7035 128.132 87.5941 122.997C84.8793 119.607 82.9518 115.413 82.4982 110.843C82.002 105.869 82.4041 100.975 84.4973 96.382C86.3594 92.2943 88.8946 88.5855 92.5677 85.9621C98.425 81.7827 104.853 79.7848 112.19 80.9903C119.314 82.1587 125.108 85.2875 129.323 91.2379C138.326 101.991 135.614 119.906 124.15 128.127ZM147.848 56.2613C141.326 47.7473 137.181 37.7122 137.095 27.7316C132.082 25.9462 127.815 24.9011 122.596 23.8104C118.21 22.8947 113.716 22.9924 109.236 22.8603C104.02 22.7053 98.8786 23.179 93.8709 24.1662C87.7625 25.369 81.8081 27.2865 76.039 29.8987C71.7215 31.8564 67.5181 34.0205 63.6654 36.63C57.9877 40.4763 52.749 44.9342 48.0354 50.081C44.9042 53.4969 42.2292 57.1827 39.5427 60.8854C35.5448 66.3941 33.1777 72.7522 30.5828 78.9839C29.6132 81.3206 28.809 83.6801 28.6979 86.2376C28.6778 86.6625 28.4954 87.0787 28.3554 87.4921C26.3109 93.609 25.9316 99.9327 25.8774 106.319C25.8461 110.117 26.2312 113.875 26.6074 117.629C27.2519 124.042 28.672 130.245 31.0675 136.302C32.5591 140.059 34.1561 143.791 35.767 147.485C36.6882 149.604 37.7007 151.868 39.4289 153.642C40.5839 154.825 41.4849 156.263 42.8168 158.006C44.8643 160.161 46.2758 163.583 49.3897 165.497C51.8223 169.326 55.6894 171.68 58.9972 174.539C62.505 177.57 66.5942 179.97 70.7976 182.048C73.4895 183.381 76.3215 184.411 79.019 185.694C82.4525 187.323 86.0943 188.252 89.7016 189.186C92.3165 189.868 94.9686 190.964 97.7206 190.769C100.952 190.544 104.052 191.308 107.214 191.585C107.765 191.637 108.318 191.82 108.86 191.777C114.608 191.317 120.392 191.049 126.072 189.941C131.394 188.909 136.458 187.049 141.557 185.192C147.5 183.027 152.745 179.732 157.853 176.19C161.344 173.767 164.593 170.994 167.698 168C170.197 165.586 172.294 162.877 174.529 160.285C175.342 159.343 176.383 158.623 177.074 157.402C178.891 154.176 181.162 151.271 182.76 147.827C184.684 143.682 187.485 139.944 188.657 135.423C190.158 129.622 192.389 123.959 192.782 117.942C193.004 114.578 193.424 111.208 193.272 107.801C193.113 104.149 193.278 100.521 192.833 96.8468C191.987 89.8775 190.014 83.2524 187.789 76.656C187.558 76.9699 187.202 76.344 186.909 75.6925C172.215 76.2091 157.503 68.8742 147.848 56.2613Z" fill="#FF91E4"/>
<path fill-rule="evenodd" clip-rule="evenodd" d="M82.8057 71.5382L73.0603 58.3368L75.4893 56.3173L85.237 69.5187L82.8057 71.5382Z" fill="#F53BC1"/>
<path fill-rule="evenodd" clip-rule="evenodd" d="M85.237 148.843L69.8752 155.253L68.4941 152.528L83.8559 146.12L85.237 148.843Z" fill="#F53BC1"/>
<path fill-rule="evenodd" clip-rule="evenodd" d="M170.474 102.077L154.595 106.546L153.731 103.405L169.609 98.9357L170.474 102.077Z" fill="#F53BC1"/>
<path fill-rule="evenodd" clip-rule="evenodd" d="M56.3174 104.439L51.6787 120.245L48.7069 119.305L53.3457 103.502L56.3174 104.439Z" fill="#FFF276"/>
<path fill-rule="evenodd" clip-rule="evenodd" d="M134.087 146.12L147.643 154.253L145.98 156.775L132.422 148.642L134.087 146.12Z" fill="#FFF276"/>
<path fill-rule="evenodd" clip-rule="evenodd" d="M124.811 46.2496L113.736 59.3615L111.113 57.2525L122.188 44.1406L124.811 46.2496Z" fill="#FFF276"/>
</svg>
