<svg width="100%" height="100%" viewBox="0 0 336 336" fill="none" xmlns="http://www.w3.org/2000/svg">
<mask id="mask0" style="mask-type:alpha" maskUnits="userSpaceOnUse" x="0" y="0" width="336" height="336">
<path fill-rule="evenodd" clip-rule="evenodd" d="M336 0H0V336H82.3766C70.9349 326.17 62.89 313.484 59.8532 298.756C51.0977 256.295 87.2881 212.948 140.687 201.937C158.289 198.307 175.563 198.645 191.128 202.249C192.65 200.091 194.256 197.963 195.943 195.869C196.669 194.969 197.404 194.082 198.147 193.209C188.979 172.094 186.974 145.695 194.316 119.149C208.85 66.5995 254.506 33.3688 296.291 44.9257C313.067 49.5655 326.668 60.7185 336 75.8076V0ZM336 185.426C335.659 186.075 335.313 186.718 334.962 187.357C335.318 188.006 335.664 188.661 336 189.322V185.426ZM229.655 336H217.859C218.623 335.448 219.376 334.888 220.12 334.32C223.236 335.094 226.42 335.652 229.655 336ZM336 264.43C331.742 274.79 325.805 284.932 318.191 294.38C298.434 318.898 271.709 333.38 246.152 336H336V264.43Z" fill="#C4C4C4"/>
</mask>
<g mask="url(#mask0)">
<path fill-rule="evenodd" clip-rule="evenodd" d="M168 336C260.784 336 336 260.784 336 168C336 75.2162 260.784 0 168 0C75.2162 0 0 75.2162 0 168C0 260.784 75.2162 336 168 336ZM168 209C190.644 209 209 190.644 209 168C209 145.356 190.644 127 168 127C145.356 127 127 145.356 127 168C127 190.644 145.356 209 168 209Z" fill="#D3857E"/>
<path fill-rule="evenodd" clip-rule="evenodd" d="M168 298C239.797 298 298 239.797 298 168C298 96.203 239.797 38 168 38C96.203 38 38 96.203 38 168C38 239.797 96.203 298 168 298ZM168 209C190.644 209 209 190.644 209 168C209 145.356 190.644 127 168 127C145.356 127 127 145.356 127 168C127 190.644 145.356 209 168 209Z" fill="#FF91E4"/>
<path fill-rule="evenodd" clip-rule="evenodd" d="M126.068 122.639L110.901 102.094L114.682 98.9507L129.852 119.496L126.068 122.639Z" fill="#F53BC1"/>
<path fill-rule="evenodd" clip-rule="evenodd" d="M129.852 242.948L105.944 252.925L103.795 248.684L127.702 238.712L129.852 242.948Z" fill="#F53BC1"/>
<path fill-rule="evenodd" clip-rule="evenodd" d="M262.506 170.167L237.795 177.122L236.449 172.233L261.161 165.278L262.506 170.167Z" fill="#F53BC1"/>
<path fill-rule="evenodd" clip-rule="evenodd" d="M84.8441 173.843L77.6249 198.441L73 196.979L80.2193 172.384L84.8441 173.843Z" fill="#FFF276"/>
<path fill-rule="evenodd" clip-rule="evenodd" d="M205.877 238.712L226.974 251.369L224.386 255.293L203.285 242.636L205.877 238.712Z" fill="#FFF276"/>
<path fill-rule="evenodd" clip-rule="evenodd" d="M191.441 83.2822L174.204 103.688L170.122 100.406L187.359 80L191.441 83.2822Z" fill="#FFF276"/>
</g>
<path d="M246 330.497C246 324.698 240.18 319.997 233 319.997C225.82 319.997 220 324.698 220 330.497C220 336.296 225.82 335.997 233 335.997C240.18 335.997 246 336.296 246 330.497Z" fill="#D3857E"/>
<path d="M275 328.905C275 325.644 271.642 323 267.5 323C263.358 323 260 325.644 260 328.905C260 332.167 263.358 331.999 267.5 331.999C271.642 331.999 275 332.167 275 328.905Z" fill="#D3857E"/>
<path d="M184 326.5C184 320.701 185.82 316 193 316C200.18 316 206 320.701 206 326.5C206 332.299 200.18 332 193 332C185.82 332 184 332.299 184 326.5Z" fill="#D3857E"/>
<path d="M101 326.5C101 320.701 99.1797 316 92 316C84.8203 316 79 320.701 79 326.5C79 332.299 84.8203 332 92 332C99.1797 332 101 332.299 101 326.5Z" fill="#D3857E"/>
</svg>
