<svg width="100%" height="100%" viewBox="0 0 336 338" fill="none" xmlns="http://www.w3.org/2000/svg">
<path d="M246 330.497C246 324.698 240.18 319.997 233 319.997C225.82 319.997 220 324.698 220 330.497C220 336.296 225.82 335.997 233 335.997C240.18 335.997 246 336.296 246 330.497Z" fill="#D3857E"/>
<path d="M275 328.905C275 325.644 271.642 323 267.5 323C263.358 323 260 325.644 260 328.905C260 332.167 263.358 331.999 267.5 331.999C271.642 331.999 275 332.167 275 328.905Z" fill="#D3857E"/>
<path d="M184 326.5C184 320.701 185.82 316 193 316C200.18 316 206 320.701 206 326.5C206 332.299 200.18 332 193 332C185.82 332 184 332.299 184 326.5Z" fill="#D3857E"/>
<path d="M101 326.5C101 320.701 99.1797 316 92 316C84.8203 316 79 320.701 79 326.5C79 332.299 84.8203 332 92 332C99.1797 332 101 332.299 101 326.5Z" fill="#D3857E"/>
<path d="M168 329.937C168 327.763 167.338 326 164.727 326C162.116 326 160 327.763 160 329.937C160 332.111 162.116 331.999 164.727 331.999C167.338 331.999 168 332.111 168 329.937Z" fill="#D3857E"/>
<path d="M55 329.937C55 327.763 55.6619 326 58.2727 326C60.8835 326 63 327.763 63 329.937C63 332.111 60.8835 331.999 58.2727 331.999C55.6619 331.999 55 332.111 55 329.937Z" fill="#D3857E"/>
<path fill-rule="evenodd" clip-rule="evenodd" d="M146.32 322.43L119.907 326.417L119 321.258L145.412 317.271L146.32 322.43Z" fill="#F53BC1"/>
</svg>
