<svg width="100%" height="100%" viewBox="0 0 336 336" fill="none" xmlns="http://www.w3.org/2000/svg">
<path fill-rule="evenodd" clip-rule="evenodd" d="M168 336C260.784 336 336 260.784 336 168C336 75.2162 260.784 0 168 0C75.2162 0 0 75.2162 0 168C0 260.784 75.2162 336 168 336ZM168 209C190.644 209 209 190.644 209 168C209 145.356 190.644 127 168 127C145.356 127 127 145.356 127 168C127 190.644 145.356 209 168 209Z" fill="#D3857E"/>
<path fill-rule="evenodd" clip-rule="evenodd" d="M168 298C239.797 298 298 239.797 298 168C298 96.203 239.797 38 168 38C96.203 38 38 96.203 38 168C38 239.797 96.203 298 168 298ZM168 209C190.644 209 209 190.644 209 168C209 145.356 190.644 127 168 127C145.356 127 127 145.356 127 168C127 190.644 145.356 209 168 209Z" fill="#FF91E4"/>
<path fill-rule="evenodd" clip-rule="evenodd" d="M126.068 122.639L110.901 102.094L114.681 98.9507L129.852 119.496L126.068 122.639Z" fill="#F53BC1"/>
<path fill-rule="evenodd" clip-rule="evenodd" d="M129.852 242.948L105.944 252.925L103.795 248.684L127.702 238.712L129.852 242.948Z" fill="#F53BC1"/>
<path fill-rule="evenodd" clip-rule="evenodd" d="M262.506 170.167L237.795 177.122L236.449 172.233L261.161 165.278L262.506 170.167Z" fill="#F53BC1"/>
<path fill-rule="evenodd" clip-rule="evenodd" d="M84.8441 173.843L77.6249 198.441L73 196.979L80.2193 172.384L84.8441 173.843Z" fill="#FFF276"/>
<path fill-rule="evenodd" clip-rule="evenodd" d="M205.877 238.712L226.974 251.369L224.386 255.293L203.285 242.636L205.877 238.712Z" fill="#FFF276"/>
<path fill-rule="evenodd" clip-rule="evenodd" d="M191.441 83.2822L174.204 103.688L170.122 100.406L187.359 80L191.441 83.2822Z" fill="#FFF276"/>
</svg>
