<svg width="336" height="336" viewBox="0 0 336 336" fill="none" xmlns="http://www.w3.org/2000/svg">
<mask id="mask0" style="mask-type:alpha" maskUnits="userSpaceOnUse" x="0" y="0" width="336" height="336">
<path fill-rule="evenodd" clip-rule="evenodd" d="M0 0H336V75.8076C326.668 60.7185 313.067 49.5655 296.291 44.9257C254.506 33.3688 208.85 66.5995 194.316 119.149C186.974 145.695 188.979 172.094 198.147 193.209C197.404 194.082 196.669 194.969 195.943 195.869C194.256 197.963 192.65 200.091 191.128 202.249C179.449 199.544 166.806 198.679 153.785 199.949C153.647 195.775 153.271 191.561 152.646 187.324C144.089 129.332 92.123 88.9644 36.5762 97.1602C23.2441 99.1273 10.9175 103.713 0 110.349V0ZM0 292.598V336H82.3766C73.3463 328.242 66.4319 318.704 62.4255 307.788C39.9253 309.914 18.2219 304.156 0 292.598ZM334.962 187.357C335.313 186.718 335.659 186.075 336 185.426V189.322C335.664 188.661 335.318 188.006 334.962 187.357ZM217.859 336H229.655C226.42 335.652 223.236 335.094 220.12 334.32C219.376 334.888 218.623 335.448 217.859 336ZM318.191 294.38C325.805 284.932 331.742 274.79 336 264.43V336H246.152C271.709 333.38 298.434 318.898 318.191 294.38Z" fill="#C4C4C4"/>
</mask>
<g mask="url(#mask0)">
<path fill-rule="evenodd" clip-rule="evenodd" d="M168 336C260.784 336 336 260.784 336 168C336 75.2162 260.784 0 168 0C75.2162 0 0 75.2162 0 168C0 260.784 75.2162 336 168 336ZM168 209C190.644 209 209 190.644 209 168C209 145.356 190.644 127 168 127C145.356 127 127 145.356 127 168C127 190.644 145.356 209 168 209Z" fill="#D3857E"/>
<path fill-rule="evenodd" clip-rule="evenodd" d="M168 298C239.797 298 298 239.797 298 168C298 96.203 239.797 38 168 38C96.203 38 38 96.203 38 168C38 239.797 96.203 298 168 298ZM168 209C190.644 209 209 190.644 209 168C209 145.356 190.644 127 168 127C145.356 127 127 145.356 127 168C127 190.644 145.356 209 168 209Z" fill="#FF91E4"/>
<path fill-rule="evenodd" clip-rule="evenodd" d="M126.068 122.639L110.901 102.094L114.682 98.9507L129.852 119.496L126.068 122.639Z" fill="#F53BC1"/>
<path fill-rule="evenodd" clip-rule="evenodd" d="M129.852 242.948L105.944 252.925L103.795 248.684L127.702 238.712L129.852 242.948Z" fill="#F53BC1"/>
<path fill-rule="evenodd" clip-rule="evenodd" d="M262.506 170.167L237.795 177.122L236.449 172.233L261.161 165.278L262.506 170.167Z" fill="#F53BC1"/>
<path fill-rule="evenodd" clip-rule="evenodd" d="M84.8441 173.843L77.6249 198.441L73 196.979L80.2193 172.384L84.8441 173.843Z" fill="#FFF276"/>
<path fill-rule="evenodd" clip-rule="evenodd" d="M205.877 238.712L226.974 251.369L224.386 255.293L203.285 242.636L205.877 238.712Z" fill="#FFF276"/>
<path fill-rule="evenodd" clip-rule="evenodd" d="M191.441 83.2822L174.204 103.688L170.122 100.406L187.359 80L191.441 83.2822Z" fill="#FFF276"/>
</g>
</svg>
