<svg width="212" height="285" viewBox="0 0 212 285" fill="none" xmlns="http://www.w3.org/2000/svg">
<g clip-path="url(#clip0)">
<mask id="mask0" style="mask-type:alpha" maskUnits="userSpaceOnUse" x="34" y="1" width="177" height="257">
<path fill-rule="evenodd" clip-rule="evenodd" d="M124.389 1.61623C123.082 1.67809 121.826 2.36541 120.667 2.87402C117.237 4.36894 113.804 5.86042 110.377 7.36564C109.397 7.79865 108.42 8.22822 107.443 8.66123C106.683 8.99458 105.947 9.45165 105.104 9.41729C102.537 9.30732 99.9641 9.31076 97.3943 9.3142C96.3932 9.31763 95.3921 9.31762 94.3945 9.31075C91.3534 9.29013 88.3123 9.27983 85.2677 9.27295C84.1394 9.26952 82.9525 9.13206 81.8344 9.16986C79.9939 9.23515 78.7864 12.0772 78.0778 13.4725C75.8073 17.9297 73.1239 22.1842 70.0828 26.1603C70.6849 27.5419 71.5896 29.3014 72.8694 30.1709C73.9702 30.9132 75.0367 31.7036 76.1169 32.4734C77.3209 33.3325 78.5938 34.0714 79.8288 34.8859C80.1969 35.1333 80.4584 35.4769 80.8437 35.7072C81.8688 36.3155 82.9628 36.8344 84.0533 37.3121C86.2447 38.2743 88.529 39.0166 90.8649 39.5287C93.6445 40.137 96.5033 40.4153 99.3483 40.3466C101.815 40.2847 104.292 39.972 106.741 40.2572C108.671 40.4841 110.646 41.1336 112.125 42.4395C112.421 42.6972 112.724 42.979 112.844 43.3674C112.94 43.6767 112.927 44.0066 113.026 44.3159C113.346 45.3193 114.052 46.1269 114.227 47.1957C114.427 48.4604 114.705 49.7079 114.86 50.9829C115.176 53.5362 114.802 76.9119 110.027 89.8094C106.648 98.9508 62.4044 204.045 53.3671 217.397C48.2963 224.888 42.9365 232.184 37.3084 239.264C36.2798 240.556 35.1962 241.941 35.0138 243.58C34.6939 246.374 37.0298 248.742 39.3725 250.292C49.4935 257 62.456 257.12 74.5998 257.007C79.0032 256.969 83.4066 256.928 87.8169 256.886C109.304 256.694 130.791 256.498 152.279 256.302C163.022 256.203 173.766 256.106 184.51 256.01C187.193 255.986 189.893 255.876 192.577 255.935C194.386 255.976 196.165 256.402 197.985 256.488C201.418 256.649 205.374 256.089 207.387 252.955C208.326 251.488 208.639 249.711 208.9 247.989C210.816 235.294 211.15 222.407 210.593 209.592C210.455 206.444 210.269 203.299 210.032 200.155C209.829 197.402 205.99 153.947 204.858 146.499C204.493 144.135 204.115 141.764 203.544 139.437C202.973 137.087 199.378 121.863 198.814 119.258C198.545 118.007 198.27 116.756 197.985 115.508C195.828 106.071 193.175 96.7376 189.752 87.6788C188.046 83.1596 186.147 78.7093 184.031 74.3654C183.171 72.5921 182.724 71.1728 182.373 69.2758C181.812 66.2207 180.189 63.2755 179.009 60.43C176.683 54.8112 174.196 49.2508 171.361 43.8622C169.228 39.8174 166.903 35.8687 164.295 32.1057C163.002 30.2293 161.632 28.3976 160.188 26.6243C159.469 25.7377 158.725 24.8613 157.969 24.009C156.943 22.8475 156.224 21.6 155.141 20.4522C152.509 17.6617 149.564 15.2286 146.451 13.0016C142.543 10.2077 138.38 7.74366 134.263 5.3243C133.065 4.6198 131.854 3.92218 130.582 3.36545C129.343 2.8259 128.067 2.61284 126.787 2.21419C126.023 1.97707 125.328 1.61279 124.52 1.61279C124.475 1.61279 124.434 1.61279 124.389 1.61623Z" fill="white"/>
</mask>
<g mask="url(#mask0)">
<path fill-rule="evenodd" clip-rule="evenodd" d="M-130.96 -0.282074L7.88165 79.5293L87.5111 -59.6389L-51.3339 -139.454L-130.96 -0.282074Z" fill="#FEC413"/>
</g>
<mask id="mask1" style="mask-type:alpha" maskUnits="userSpaceOnUse" x="34" y="1" width="177" height="257">
<path fill-rule="evenodd" clip-rule="evenodd" d="M124.389 1.61623C123.082 1.67809 121.826 2.36541 120.667 2.87402C117.237 4.36894 113.804 5.86042 110.377 7.36564C109.397 7.79865 108.42 8.22822 107.443 8.66123C106.683 8.99458 105.947 9.45165 105.104 9.41729C102.537 9.30732 99.9641 9.31076 97.3943 9.3142C96.3932 9.31763 95.3921 9.31762 94.3945 9.31075C91.3534 9.29013 88.3123 9.27983 85.2677 9.27295C84.1394 9.26952 82.9525 9.13206 81.8344 9.16986C79.9939 9.23515 78.7864 12.0772 78.0778 13.4725C75.8073 17.9297 73.1239 22.1842 70.0828 26.1603C70.6849 27.5419 71.5896 29.3014 72.8694 30.1709C73.9702 30.9132 75.0367 31.7036 76.1169 32.4734C77.3209 33.3325 78.5938 34.0714 79.8288 34.8859C80.1969 35.1333 80.4584 35.4769 80.8437 35.7072C81.8688 36.3155 82.9628 36.8344 84.0533 37.3121C86.2447 38.2743 88.529 39.0166 90.8649 39.5287C93.6445 40.137 96.5033 40.4153 99.3483 40.3466C101.815 40.2847 104.292 39.972 106.741 40.2572C108.671 40.4841 110.646 41.1336 112.125 42.4395C112.421 42.6972 112.724 42.979 112.844 43.3674C112.94 43.6767 112.927 44.0066 113.026 44.3159C113.346 45.3193 114.052 46.1269 114.227 47.1957C114.427 48.4604 114.705 49.7079 114.86 50.9829C115.176 53.5362 114.802 76.9119 110.027 89.8094C106.648 98.9508 62.4044 204.045 53.3671 217.397C48.2963 224.888 42.9365 232.184 37.3084 239.264C36.2798 240.556 35.1962 241.941 35.0138 243.58C34.6939 246.374 37.0298 248.742 39.3725 250.292C49.4935 257 62.456 257.12 74.5998 257.007C79.0032 256.969 83.4066 256.928 87.8169 256.886C109.304 256.694 130.791 256.498 152.279 256.302C163.022 256.203 173.766 256.106 184.51 256.01C187.193 255.986 189.893 255.876 192.577 255.935C194.386 255.976 196.165 256.402 197.985 256.488C201.418 256.649 205.374 256.089 207.387 252.955C208.326 251.488 208.639 249.711 208.9 247.989C210.816 235.294 211.15 222.407 210.593 209.592C210.455 206.444 210.269 203.299 210.032 200.155C209.829 197.402 205.99 153.947 204.858 146.499C204.493 144.135 204.115 141.764 203.544 139.437C202.973 137.087 199.378 121.863 198.814 119.258C198.545 118.007 198.27 116.756 197.985 115.508C195.828 106.071 193.175 96.7376 189.752 87.6788C188.046 83.1596 186.147 78.7093 184.031 74.3654C183.171 72.5921 182.724 71.1728 182.373 69.2758C181.812 66.2207 180.189 63.2755 179.009 60.43C176.683 54.8112 174.196 49.2508 171.361 43.8622C169.228 39.8174 166.903 35.8687 164.295 32.1057C163.002 30.2293 161.632 28.3976 160.188 26.6243C159.469 25.7377 158.725 24.8613 157.969 24.009C156.943 22.8475 156.224 21.6 155.141 20.4522C152.509 17.6617 149.564 15.2286 146.451 13.0016C142.543 10.2077 138.38 7.74366 134.263 5.3243C133.065 4.6198 131.854 3.92218 130.582 3.36545C129.343 2.8259 128.067 2.61284 126.787 2.21419C126.023 1.97707 125.328 1.61279 124.52 1.61279C124.475 1.61279 124.434 1.61279 124.389 1.61623Z" fill="white"/>
</mask>
<g mask="url(#mask1)">
<path fill-rule="evenodd" clip-rule="evenodd" d="M87.5106 -59.6406L226.352 20.1708L305.982 -118.997L167.137 -198.809L87.5106 -59.6406Z" fill="#FEC413"/>
</g>
<mask id="mask2" style="mask-type:alpha" maskUnits="userSpaceOnUse" x="34" y="1" width="177" height="257">
<path fill-rule="evenodd" clip-rule="evenodd" d="M124.389 1.61623C123.082 1.67809 121.826 2.36541 120.667 2.87402C117.237 4.36894 113.804 5.86042 110.377 7.36564C109.397 7.79865 108.42 8.22822 107.443 8.66123C106.683 8.99458 105.947 9.45165 105.104 9.41729C102.537 9.30732 99.9641 9.31076 97.3943 9.3142C96.3932 9.31763 95.3921 9.31762 94.3945 9.31075C91.3534 9.29013 88.3123 9.27983 85.2677 9.27295C84.1394 9.26952 82.9525 9.13206 81.8344 9.16986C79.9939 9.23515 78.7864 12.0772 78.0778 13.4725C75.8073 17.9297 73.1239 22.1842 70.0828 26.1603C70.6849 27.5419 71.5896 29.3014 72.8694 30.1709C73.9702 30.9132 75.0367 31.7036 76.1169 32.4734C77.3209 33.3325 78.5938 34.0714 79.8288 34.8859C80.1969 35.1333 80.4584 35.4769 80.8437 35.7072C81.8688 36.3155 82.9628 36.8344 84.0533 37.3121C86.2447 38.2743 88.529 39.0166 90.8649 39.5287C93.6445 40.137 96.5033 40.4153 99.3483 40.3466C101.815 40.2847 104.292 39.972 106.741 40.2572C108.671 40.4841 110.646 41.1336 112.125 42.4395C112.421 42.6972 112.724 42.979 112.844 43.3674C112.94 43.6767 112.927 44.0066 113.026 44.3159C113.346 45.3193 114.052 46.1269 114.227 47.1957C114.427 48.4604 114.705 49.7079 114.86 50.9829C115.176 53.5362 114.802 76.9119 110.027 89.8094C106.648 98.9508 62.4044 204.045 53.3671 217.397C48.2963 224.888 42.9365 232.184 37.3084 239.264C36.2798 240.556 35.1962 241.941 35.0138 243.58C34.6939 246.374 37.0298 248.742 39.3725 250.292C49.4935 257 62.456 257.12 74.5998 257.007C79.0032 256.969 83.4066 256.928 87.8169 256.886C109.304 256.694 130.791 256.498 152.279 256.302C163.022 256.203 173.766 256.106 184.51 256.01C187.193 255.986 189.893 255.876 192.577 255.935C194.386 255.976 196.165 256.402 197.985 256.488C201.418 256.649 205.374 256.089 207.387 252.955C208.326 251.488 208.639 249.711 208.9 247.989C210.816 235.294 211.15 222.407 210.593 209.592C210.455 206.444 210.269 203.299 210.032 200.155C209.829 197.402 205.99 153.947 204.858 146.499C204.493 144.135 204.115 141.764 203.544 139.437C202.973 137.087 199.378 121.863 198.814 119.258C198.545 118.007 198.27 116.756 197.985 115.508C195.828 106.071 193.175 96.7376 189.752 87.6788C188.046 83.1596 186.147 78.7093 184.031 74.3654C183.171 72.5921 182.724 71.1728 182.373 69.2758C181.812 66.2207 180.189 63.2755 179.009 60.43C176.683 54.8112 174.196 49.2508 171.361 43.8622C169.228 39.8174 166.903 35.8687 164.295 32.1057C163.002 30.2293 161.632 28.3976 160.188 26.6243C159.469 25.7377 158.725 24.8613 157.969 24.009C156.943 22.8475 156.224 21.6 155.141 20.4522C152.509 17.6617 149.564 15.2286 146.451 13.0016C142.543 10.2077 138.38 7.74366 134.263 5.3243C133.065 4.6198 131.854 3.92218 130.582 3.36545C129.343 2.8259 128.067 2.61284 126.787 2.21419C126.023 1.97707 125.328 1.61279 124.52 1.61279C124.475 1.61279 124.434 1.61279 124.389 1.61623Z" fill="white"/>
</mask>
<g mask="url(#mask2)">
<path fill-rule="evenodd" clip-rule="evenodd" d="M7.883 79.5296L146.728 159.341L226.356 20.1728L87.509 -59.642L7.883 79.5296Z" fill="#FEC413"/>
</g>
<mask id="mask3" style="mask-type:alpha" maskUnits="userSpaceOnUse" x="34" y="1" width="177" height="257">
<path fill-rule="evenodd" clip-rule="evenodd" d="M124.389 1.61623C123.082 1.67809 121.826 2.36541 120.667 2.87402C117.237 4.36894 113.804 5.86042 110.377 7.36564C109.397 7.79865 108.42 8.22822 107.443 8.66123C106.683 8.99458 105.947 9.45165 105.104 9.41729C102.537 9.30732 99.9641 9.31076 97.3943 9.3142C96.3932 9.31763 95.3921 9.31762 94.3945 9.31075C91.3534 9.29013 88.3123 9.27983 85.2677 9.27295C84.1394 9.26952 82.9525 9.13206 81.8344 9.16986C79.9939 9.23515 78.7864 12.0772 78.0778 13.4725C75.8073 17.9297 73.1239 22.1842 70.0828 26.1603C70.6849 27.5419 71.5896 29.3014 72.8694 30.1709C73.9702 30.9132 75.0367 31.7036 76.1169 32.4734C77.3209 33.3325 78.5938 34.0714 79.8288 34.8859C80.1969 35.1333 80.4584 35.4769 80.8437 35.7072C81.8688 36.3155 82.9628 36.8344 84.0533 37.3121C86.2447 38.2743 88.529 39.0166 90.8649 39.5287C93.6445 40.137 96.5033 40.4153 99.3483 40.3466C101.815 40.2847 104.292 39.972 106.741 40.2572C108.671 40.4841 110.646 41.1336 112.125 42.4395C112.421 42.6972 112.724 42.979 112.844 43.3674C112.94 43.6767 112.927 44.0066 113.026 44.3159C113.346 45.3193 114.052 46.1269 114.227 47.1957C114.427 48.4604 114.705 49.7079 114.86 50.9829C115.176 53.5362 114.802 76.9119 110.027 89.8094C106.648 98.9508 62.4044 204.045 53.3671 217.397C48.2963 224.888 42.9365 232.184 37.3084 239.264C36.2798 240.556 35.1962 241.941 35.0138 243.58C34.6939 246.374 37.0298 248.742 39.3725 250.292C49.4935 257 62.456 257.12 74.5998 257.007C79.0032 256.969 83.4066 256.928 87.8169 256.886C109.304 256.694 130.791 256.498 152.279 256.302C163.022 256.203 173.766 256.106 184.51 256.01C187.193 255.986 189.893 255.876 192.577 255.935C194.386 255.976 196.165 256.402 197.985 256.488C201.418 256.649 205.374 256.089 207.387 252.955C208.326 251.488 208.639 249.711 208.9 247.989C210.816 235.294 211.15 222.407 210.593 209.592C210.455 206.444 210.269 203.299 210.032 200.155C209.829 197.402 205.99 153.947 204.858 146.499C204.493 144.135 204.115 141.764 203.544 139.437C202.973 137.087 199.378 121.863 198.814 119.258C198.545 118.007 198.27 116.756 197.985 115.508C195.828 106.071 193.175 96.7376 189.752 87.6788C188.046 83.1596 186.147 78.7093 184.031 74.3654C183.171 72.5921 182.724 71.1728 182.373 69.2758C181.812 66.2207 180.189 63.2755 179.009 60.43C176.683 54.8112 174.196 49.2508 171.361 43.8622C169.228 39.8174 166.903 35.8687 164.295 32.1057C163.002 30.2293 161.632 28.3976 160.188 26.6243C159.469 25.7377 158.725 24.8613 157.969 24.009C156.943 22.8475 156.224 21.6 155.141 20.4522C152.509 17.6617 149.564 15.2286 146.451 13.0016C142.543 10.2077 138.38 7.74366 134.263 5.3243C133.065 4.6198 131.854 3.92218 130.582 3.36545C129.343 2.8259 128.067 2.61284 126.787 2.21419C126.023 1.97707 125.328 1.61279 124.52 1.61279C124.475 1.61279 124.434 1.61279 124.389 1.61623Z" fill="white"/>
</mask>
<g mask="url(#mask3)">
<path fill-rule="evenodd" clip-rule="evenodd" d="M-71.7413 218.699L68.1835 298.51L148.429 159.341L8.50389 79.5299L-71.7413 218.699Z" fill="#FEC413"/>
</g>
<mask id="mask4" style="mask-type:alpha" maskUnits="userSpaceOnUse" x="34" y="1" width="177" height="257">
<path fill-rule="evenodd" clip-rule="evenodd" d="M124.389 1.61623C123.082 1.67809 121.826 2.36541 120.667 2.87402C117.237 4.36894 113.804 5.86042 110.377 7.36564C109.397 7.79865 108.42 8.22822 107.443 8.66123C106.683 8.99458 105.947 9.45165 105.104 9.41729C102.537 9.30732 99.9641 9.31076 97.3943 9.3142C96.3932 9.31763 95.3921 9.31762 94.3945 9.31075C91.3534 9.29013 88.3123 9.27983 85.2677 9.27295C84.1394 9.26952 82.9525 9.13206 81.8344 9.16986C79.9939 9.23515 78.7864 12.0772 78.0778 13.4725C75.8073 17.9297 73.1239 22.1842 70.0828 26.1603C70.6849 27.5419 71.5896 29.3014 72.8694 30.1709C73.9702 30.9132 75.0367 31.7036 76.1169 32.4734C77.3209 33.3325 78.5938 34.0714 79.8288 34.8859C80.1969 35.1333 80.4584 35.4769 80.8437 35.7072C81.8688 36.3155 82.9628 36.8344 84.0533 37.3121C86.2447 38.2743 88.529 39.0166 90.8649 39.5287C93.6445 40.137 96.5033 40.4153 99.3483 40.3466C101.815 40.2847 104.292 39.972 106.741 40.2572C108.671 40.4841 110.646 41.1336 112.125 42.4395C112.421 42.6972 112.724 42.979 112.844 43.3674C112.94 43.6767 112.927 44.0066 113.026 44.3159C113.346 45.3193 114.052 46.1269 114.227 47.1957C114.427 48.4604 114.705 49.7079 114.86 50.9829C115.176 53.5362 114.802 76.9119 110.027 89.8094C106.648 98.9508 62.4044 204.045 53.3671 217.397C48.2963 224.888 42.9365 232.184 37.3084 239.264C36.2798 240.556 35.1962 241.941 35.0138 243.58C34.6939 246.374 37.0298 248.742 39.3725 250.292C49.4935 257 62.456 257.12 74.5998 257.007C79.0032 256.969 83.4066 256.928 87.8169 256.886C109.304 256.694 130.791 256.498 152.279 256.302C163.022 256.203 173.766 256.106 184.51 256.01C187.193 255.986 189.893 255.876 192.577 255.935C194.386 255.976 196.165 256.402 197.985 256.488C201.418 256.649 205.374 256.089 207.387 252.955C208.326 251.488 208.639 249.711 208.9 247.989C210.816 235.294 211.15 222.407 210.593 209.592C210.455 206.444 210.269 203.299 210.032 200.155C209.829 197.402 205.99 153.947 204.858 146.499C204.493 144.135 204.115 141.764 203.544 139.437C202.973 137.087 199.378 121.863 198.814 119.258C198.545 118.007 198.27 116.756 197.985 115.508C195.828 106.071 193.175 96.7376 189.752 87.6788C188.046 83.1596 186.147 78.7093 184.031 74.3654C183.171 72.5921 182.724 71.1728 182.373 69.2758C181.812 66.2207 180.189 63.2755 179.009 60.43C176.683 54.8112 174.196 49.2508 171.361 43.8622C169.228 39.8174 166.903 35.8687 164.295 32.1057C163.002 30.2293 161.632 28.3976 160.188 26.6243C159.469 25.7377 158.725 24.8613 157.969 24.009C156.943 22.8475 156.224 21.6 155.141 20.4522C152.509 17.6617 149.564 15.2286 146.451 13.0016C142.543 10.2077 138.38 7.74366 134.263 5.3243C133.065 4.6198 131.854 3.92218 130.582 3.36545C129.343 2.8259 128.067 2.61284 126.787 2.21419C126.023 1.97707 125.328 1.61279 124.52 1.61279C124.475 1.61279 124.434 1.61279 124.389 1.61623Z" fill="white"/>
</mask>
<g mask="url(#mask4)">
<path fill-rule="evenodd" clip-rule="evenodd" d="M145.029 159.951L284.952 240.113L365.201 100.334L225.275 20.1715L145.029 159.951Z" fill="#FEC413"/>
</g>
<mask id="mask5" style="mask-type:alpha" maskUnits="userSpaceOnUse" x="34" y="1" width="177" height="257">
<path fill-rule="evenodd" clip-rule="evenodd" d="M124.389 1.61623C123.082 1.67809 121.826 2.36541 120.667 2.87402C117.237 4.36894 113.804 5.86042 110.377 7.36564C109.397 7.79865 108.42 8.22822 107.443 8.66123C106.683 8.99458 105.947 9.45165 105.104 9.41729C102.537 9.30732 99.9641 9.31076 97.3943 9.3142C96.3932 9.31763 95.3921 9.31762 94.3945 9.31075C91.3534 9.29013 88.3123 9.27983 85.2677 9.27295C84.1394 9.26952 82.9525 9.13206 81.8344 9.16986C79.9939 9.23515 78.7864 12.0772 78.0778 13.4725C75.8073 17.9297 73.1239 22.1842 70.0828 26.1603C70.6849 27.5419 71.5896 29.3014 72.8694 30.1709C73.9702 30.9132 75.0367 31.7036 76.1169 32.4734C77.3209 33.3325 78.5938 34.0714 79.8288 34.8859C80.1969 35.1333 80.4584 35.4769 80.8437 35.7072C81.8688 36.3155 82.9628 36.8344 84.0533 37.3121C86.2447 38.2743 88.529 39.0166 90.8649 39.5287C93.6445 40.137 96.5033 40.4153 99.3483 40.3466C101.815 40.2847 104.292 39.972 106.741 40.2572C108.671 40.4841 110.646 41.1336 112.125 42.4395C112.421 42.6972 112.724 42.979 112.844 43.3674C112.94 43.6767 112.927 44.0066 113.026 44.3159C113.346 45.3193 114.052 46.1269 114.227 47.1957C114.427 48.4604 114.705 49.7079 114.86 50.9829C115.176 53.5362 114.802 76.9119 110.027 89.8094C106.648 98.9508 62.4044 204.045 53.3671 217.397C48.2963 224.888 42.9365 232.184 37.3084 239.264C36.2798 240.556 35.1962 241.941 35.0138 243.58C34.6939 246.374 37.0298 248.742 39.3725 250.292C49.4935 257 62.456 257.12 74.5998 257.007C79.0032 256.969 83.4066 256.928 87.8169 256.886C109.304 256.694 130.791 256.498 152.279 256.302C163.022 256.203 173.766 256.106 184.51 256.01C187.193 255.986 189.893 255.876 192.577 255.935C194.386 255.976 196.165 256.402 197.985 256.488C201.418 256.649 205.374 256.089 207.387 252.955C208.326 251.488 208.639 249.711 208.9 247.989C210.816 235.294 211.15 222.407 210.593 209.592C210.455 206.444 210.269 203.299 210.032 200.155C209.829 197.402 205.99 153.947 204.858 146.499C204.493 144.135 204.115 141.764 203.544 139.437C202.973 137.087 199.378 121.863 198.814 119.258C198.545 118.007 198.27 116.756 197.985 115.508C195.828 106.071 193.175 96.7376 189.752 87.6788C188.046 83.1596 186.147 78.7093 184.031 74.3654C183.171 72.5921 182.724 71.1728 182.373 69.2758C181.812 66.2207 180.189 63.2755 179.009 60.43C176.683 54.8112 174.196 49.2508 171.361 43.8622C169.228 39.8174 166.903 35.8687 164.295 32.1057C163.002 30.2293 161.632 28.3976 160.188 26.6243C159.469 25.7377 158.725 24.8613 157.969 24.009C156.943 22.8475 156.224 21.6 155.141 20.4522C152.509 17.6617 149.564 15.2286 146.451 13.0016C142.543 10.2077 138.38 7.74366 134.263 5.3243C133.065 4.6198 131.854 3.92218 130.582 3.36545C129.343 2.8259 128.067 2.61284 126.787 2.21419C126.023 1.97707 125.328 1.61279 124.52 1.61279C124.475 1.61279 124.434 1.61279 124.389 1.61623Z" fill="white"/>
</mask>
<g mask="url(#mask5)">
<path fill-rule="evenodd" clip-rule="evenodd" d="M65.4015 298.16L205.326 378.322L285.571 238.542L145.648 158.379L65.4015 298.16Z" fill="#FEC413"/>
</g>
<path fill-rule="evenodd" clip-rule="evenodd" d="M81.2607 8.95714C82.3822 9.17708 83.2732 9.73724 83.3695 11.1737C83.4658 12.6412 82.7847 14.0364 82.107 15.3389C80.5245 18.3734 78.8044 21.4182 76.386 23.8788C75.2714 25.0129 74.0467 26.0576 72.9011 27.1608C70.6203 29.3636 67.6996 24.951 66.812 23.2224C65.6974 21.0539 65.5598 18.4112 66.1033 16.0606C66.64 13.7374 67.8097 11.4624 69.774 10.1015C72.1167 8.47601 74.9239 8.56193 77.6451 8.78531C78.6874 8.87122 80.0979 8.73376 81.2607 8.95714Z" fill="#111111"/>
<path fill-rule="evenodd" clip-rule="evenodd" d="M173.807 61.2108C174.513 68.2971 175.706 75.4864 174.1 82.6586C173.15 86.9027 172.115 91.0438 169.951 94.8688C169.032 96.4908 167.445 97.6662 166.076 98.9308C164.497 100.381 162.791 101.721 160.843 102.642C158.642 103.691 156.22 104.161 153.805 104.371C150.671 104.639 147.53 104.814 144.544 103.739C142.717 103.082 140.956 102.196 139.459 100.948C137.295 99.1473 135.772 96.673 134.712 94.068C133.615 91.3703 133.05 88.487 132.837 85.5831C131.915 73.043 135.273 65.8571 135.937 63.6817C136.577 61.5923 138.142 59.5612 139.139 57.5989C141.321 53.3101 143.213 48.8803 144.809 44.3406C146.405 39.8043 147.705 35.1615 148.693 30.4568C149.188 28.1027 149.601 25.7349 149.942 23.3533C150.107 22.1643 150.255 20.9718 150.382 19.7758C150.423 19.4184 150.915 16.4423 150.698 16.3255C152.243 17.1572 170.986 32.8177 173.807 61.2108Z" fill="#992F03"/>
<path fill-rule="evenodd" clip-rule="evenodd" d="M104.397 33.2466C110.507 32.7105 116.592 31.0369 121.777 27.7653C123.101 29.0402 121.897 31.2706 120.507 32.4768C116.775 35.7141 111.817 37.2846 106.894 37.7245C101.968 38.1609 97.0143 37.5458 92.1155 36.8688C90.7084 36.6729 89.2395 36.3705 87.9942 35.6522C87.2442 35.2123 85.4347 33.7655 86.6078 32.903C87.7809 32.0438 90.3128 32.8892 91.6063 33.0232C93.5982 33.2294 95.6003 33.3738 97.606 33.4322C99.873 33.494 102.14 33.4459 104.397 33.2466Z" fill="#111111"/>
<path fill-rule="evenodd" clip-rule="evenodd" d="M128.337 22.1197C128.258 22.1197 128.172 22.1162 128.089 22.1025C127.147 21.965 126.497 21.0956 126.634 20.1539C127.075 17.1297 125.558 13.9028 122.95 12.3048C120.342 10.7102 116.771 10.827 114.274 12.59C113.5 13.1398 112.426 12.9508 111.879 12.1776C111.329 11.4044 111.511 10.3322 112.289 9.78574C115.88 7.24954 120.999 7.08459 124.746 9.37679C128.495 11.669 130.67 16.305 130.037 20.6488C129.913 21.5045 129.18 22.1197 128.337 22.1197Z" fill="#111111"/>
<path fill-rule="evenodd" clip-rule="evenodd" d="M187.114 116.887C184.709 120.833 184.159 125.86 185.655 130.232C186.942 133.988 189.642 137.287 190.069 141.229C190.678 146.803 186.625 151.731 182.559 155.594C180.639 157.415 178.668 159.199 176.938 161.206C176.091 162.189 175.3 163.223 174.636 164.336C174.089 165.251 173.714 166.209 173.281 167.172C173.13 167.515 172.638 169.172 172.638 169.656C172.631 171.784 172.841 173.911 173.246 176C174.065 180.179 175.686 184.203 177.984 187.791C179.697 190.461 181.788 192.891 184.2 194.95C189.102 199.135 195.191 201.823 201.518 203.067C204.428 203.641 207.397 203.916 210.366 204.039C210.393 204.043 210.118 196.798 210.118 196.139C210.369 153.518 196.812 110.781 196.812 110.781C192.965 111.578 189.116 113.599 187.114 116.887Z" fill="#992F03"/>
<path fill-rule="evenodd" clip-rule="evenodd" d="M109.014 257.818C108.529 257.818 108.068 257.612 107.741 257.254C107.407 256.887 107.249 256.395 107.304 255.907C107.765 251.842 110.517 248.993 113.183 246.24C114.329 245.058 115.409 243.938 116.304 242.745C118.908 239.164 139.776 167.601 141.252 154.428C141.355 153.483 142.208 152.806 143.154 152.909C144.097 153.016 144.778 153.865 144.671 154.81C143.302 167.054 122.475 240.223 119.059 244.797C118.037 246.171 116.826 247.419 115.66 248.628C113.84 250.505 112.103 252.302 111.24 254.347L135.448 253.972C137.127 251.914 142.617 245.054 145.376 240.185C145.844 239.353 146.904 239.068 147.719 239.535C148.545 240.003 148.837 241.054 148.366 241.879C144.95 247.907 137.897 256.419 137.598 256.777C137.275 257.165 136.8 257.388 136.301 257.399L109.041 257.818H109.014Z" fill="#992F03"/>
<path fill-rule="evenodd" clip-rule="evenodd" d="M109.013 257.818H109.006L84.3709 257.708C83.5763 257.704 82.8917 257.162 82.7059 256.392C82.5614 255.794 79.1556 241.628 78.2681 232.635C78.1786 231.689 78.8667 230.848 79.8162 230.755C80.7519 230.693 81.6016 231.353 81.6979 232.298C82.4066 239.501 84.8698 250.519 85.7401 254.278L107.258 254.374C106.997 249.474 105.394 245.769 103.839 242.175C103.044 240.336 102.219 238.436 101.596 236.418C99.6212 230.054 96.4665 162.239 97.2268 154.806C97.3266 153.861 98.1866 153.187 99.112 153.273C100.058 153.37 100.746 154.215 100.646 155.157C99.9342 162.112 103.054 229.511 104.881 235.404C105.452 237.243 106.202 238.975 106.997 240.81C108.868 245.144 110.805 249.622 110.733 256.12C110.723 257.062 109.952 257.818 109.013 257.818Z" fill="#992F03"/>
<path fill-rule="evenodd" clip-rule="evenodd" d="M197.703 256.526H197.689L149.017 256.137C148.384 256.134 147.806 255.783 147.51 255.227C147.214 254.67 147.245 253.996 147.596 253.471C152.254 246.432 158.512 240.363 165.688 235.92L166.063 235.693C167.164 235.013 168.206 234.373 168.908 233.525C169.837 232.391 170.274 230.727 170.659 229.256C173.979 216.524 177.825 204.618 188.163 198.81C191.662 196.844 195.621 195.858 199.055 195.085C200.001 194.878 200.905 195.456 201.108 196.384C201.322 197.308 200.737 198.229 199.811 198.435C196.468 199.188 192.941 200.068 189.849 201.807C180.688 206.955 177.117 218.136 173.983 230.122C173.539 231.844 172.978 233.989 171.564 235.707C170.498 236.999 169.101 237.862 167.862 238.621L167.505 238.841C161.66 242.46 156.465 247.219 152.33 252.728L197.716 253.089C198.666 253.096 199.43 253.873 199.423 254.821C199.416 255.766 198.645 256.526 197.703 256.526Z" fill="#992F03"/>
<mask id="mask6" style="mask-type:alpha" maskUnits="userSpaceOnUse" x="3" y="192" width="103" height="94">
<path fill-rule="evenodd" clip-rule="evenodd" d="M59.9963 192.533C55.3521 193.484 50.7389 194.605 46.2116 196.017C41.041 197.629 35.9874 199.629 31.2022 202.165C20.2969 207.942 10.6713 216.847 6.03395 228.273C4.0593 233.14 3.03757 238.683 4.81957 243.618C6.48805 248.243 10.372 251.704 14.4176 254.491C21.8174 259.574 30.2837 263.1 39.1042 264.76C47.2677 266.296 55.8578 266.351 63.6704 269.409C65.2116 270.014 66.8423 270.729 68.2871 271.54C69.0474 271.966 69.5428 272.674 70.3856 272.98C71.2766 273.303 72.4256 273.124 72.9313 272.327C73.5574 271.327 72.921 270.059 72.3603 269.021C72.2364 268.787 72.1092 268.523 72.1848 268.268C72.3156 267.791 72.9795 267.756 73.4749 267.825C74.3143 267.935 75.2087 267.98 76.0172 268.213C76.7224 268.416 77.6306 268.963 78.3771 268.963C82.4227 270.224 86.3549 271.86 90.1046 273.846C92.069 274.887 94.0539 275.987 95.8703 277.283C96.235 277.54 96.5962 277.815 96.8645 278.19C97.5629 279.176 97.6076 280.602 97.618 281.754C97.6317 282.864 97.6799 284.486 98.9424 284.922C100.085 285.317 101.182 284.273 101.88 283.29C103.249 281.348 104.357 279.214 105.135 276.97C105.871 274.856 105.228 273.193 105.007 271.135C104.763 268.86 104.846 266.825 104.055 264.615C102.592 260.529 99.6649 256.99 96.1215 254.519C90.373 250.505 83.3138 248.903 76.4162 247.597C69.5256 246.288 62.4526 245.137 56.2638 241.831C51.3581 239.212 46.8033 234.312 47.6083 228.813C48.1243 225.339 50.5944 222.658 52.6206 219.947C57.977 212.764 62.0811 204.454 66.2712 196.56C66.7081 195.732 67.1622 194.839 67.0762 193.904C66.9214 192.299 65.5866 192.295 64.3825 192.172C64.0041 192.13 63.6429 192.113 63.292 192.113C62.1843 192.113 61.1729 192.292 59.9963 192.533Z" fill="white"/>
</mask>
<g mask="url(#mask6)">
<path fill-rule="evenodd" clip-rule="evenodd" d="M-71.7411 218.699L67.1038 298.51L146.73 159.341L7.88484 79.5299L-71.7411 218.699Z" fill="#FEC413"/>
</g>
<mask id="mask7" style="mask-type:alpha" maskUnits="userSpaceOnUse" x="3" y="192" width="103" height="94">
<path fill-rule="evenodd" clip-rule="evenodd" d="M59.9963 192.533C55.3521 193.484 50.7389 194.605 46.2116 196.017C41.041 197.629 35.9874 199.629 31.2022 202.165C20.2969 207.942 10.6713 216.847 6.03395 228.273C4.0593 233.14 3.03757 238.683 4.81957 243.618C6.48805 248.243 10.372 251.704 14.4176 254.491C21.8174 259.574 30.2837 263.1 39.1042 264.76C47.2677 266.296 55.8578 266.351 63.6704 269.409C65.2116 270.014 66.8423 270.729 68.2871 271.54C69.0474 271.966 69.5428 272.674 70.3856 272.98C71.2766 273.303 72.4256 273.124 72.9313 272.327C73.5574 271.327 72.921 270.059 72.3603 269.021C72.2364 268.787 72.1092 268.523 72.1848 268.268C72.3156 267.791 72.9795 267.756 73.4749 267.825C74.3143 267.935 75.2087 267.98 76.0172 268.213C76.7224 268.416 77.6306 268.963 78.3771 268.963C82.4227 270.224 86.3549 271.86 90.1046 273.846C92.069 274.887 94.0539 275.987 95.8703 277.283C96.235 277.54 96.5962 277.815 96.8645 278.19C97.5629 279.176 97.6076 280.602 97.618 281.754C97.6317 282.864 97.6799 284.486 98.9424 284.922C100.085 285.317 101.182 284.273 101.88 283.29C103.249 281.348 104.357 279.214 105.135 276.97C105.871 274.856 105.228 273.193 105.007 271.135C104.763 268.86 104.846 266.825 104.055 264.615C102.592 260.529 99.6649 256.99 96.1215 254.519C90.373 250.505 83.3138 248.903 76.4162 247.597C69.5256 246.288 62.4526 245.137 56.2638 241.831C51.3581 239.212 46.8033 234.312 47.6083 228.813C48.1243 225.339 50.5944 222.658 52.6206 219.947C57.977 212.764 62.0811 204.454 66.2712 196.56C66.7081 195.732 67.1622 194.839 67.0762 193.904C66.9214 192.299 65.5866 192.295 64.3825 192.172C64.0041 192.13 63.6429 192.113 63.292 192.113C62.1843 192.113 61.1729 192.292 59.9963 192.533Z" fill="white"/>
</mask>
<g mask="url(#mask7)">
<path fill-rule="evenodd" clip-rule="evenodd" d="M-151.365 357.867L-12.5239 437.679L67.1055 298.51L-71.7394 218.699L-151.365 357.867Z" fill="#FEC413"/>
</g>
<mask id="mask8" style="mask-type:alpha" maskUnits="userSpaceOnUse" x="3" y="192" width="103" height="94">
<path fill-rule="evenodd" clip-rule="evenodd" d="M59.9963 192.533C55.3521 193.484 50.7389 194.605 46.2116 196.017C41.041 197.629 35.9874 199.629 31.2022 202.165C20.2969 207.942 10.6713 216.847 6.03395 228.273C4.0593 233.14 3.03757 238.683 4.81957 243.618C6.48805 248.243 10.372 251.704 14.4176 254.491C21.8174 259.574 30.2837 263.1 39.1042 264.76C47.2677 266.296 55.8578 266.351 63.6704 269.409C65.2116 270.014 66.8423 270.729 68.2871 271.54C69.0474 271.966 69.5428 272.674 70.3856 272.98C71.2766 273.303 72.4256 273.124 72.9313 272.327C73.5574 271.327 72.921 270.059 72.3603 269.021C72.2364 268.787 72.1092 268.523 72.1848 268.268C72.3156 267.791 72.9795 267.756 73.4749 267.825C74.3143 267.935 75.2087 267.98 76.0172 268.213C76.7224 268.416 77.6306 268.963 78.3771 268.963C82.4227 270.224 86.3549 271.86 90.1046 273.846C92.069 274.887 94.0539 275.987 95.8703 277.283C96.235 277.54 96.5962 277.815 96.8645 278.19C97.5629 279.176 97.6076 280.602 97.618 281.754C97.6317 282.864 97.6799 284.486 98.9424 284.922C100.085 285.317 101.182 284.273 101.88 283.29C103.249 281.348 104.357 279.214 105.135 276.97C105.871 274.856 105.228 273.193 105.007 271.135C104.763 268.86 104.846 266.825 104.055 264.615C102.592 260.529 99.6649 256.99 96.1215 254.519C90.373 250.505 83.3138 248.903 76.4162 247.597C69.5256 246.288 62.4526 245.137 56.2638 241.831C51.3581 239.212 46.8033 234.312 47.6083 228.813C48.1243 225.339 50.5944 222.658 52.6206 219.947C57.977 212.764 62.0811 204.454 66.2712 196.56C66.7081 195.732 67.1622 194.839 67.0762 193.904C66.9214 192.299 65.5866 192.295 64.3825 192.172C64.0041 192.13 63.6429 192.113 63.292 192.113C62.1843 192.113 61.1729 192.292 59.9963 192.533Z" fill="white"/>
</mask>
<g mask="url(#mask8)">
<path fill-rule="evenodd" clip-rule="evenodd" d="M67.1033 298.51L205.945 378.322L285.571 239.154L146.729 159.338L67.1033 298.51Z" fill="#FEC413"/>
</g>
<path fill-rule="evenodd" clip-rule="evenodd" d="M97.4841 255.667C97.288 255.667 97.0954 255.601 96.9371 255.467C91.9145 251.312 85.5949 249.776 78.9038 248.144C75.0302 247.199 71.0258 246.223 67.307 244.69C64.2005 243.415 61.8199 241.924 60.0207 240.14C57.0966 237.25 55.5038 233.006 55.6517 228.504C55.7962 224.002 57.6642 219.868 60.7707 217.17C61.1319 216.861 61.6754 216.895 61.9851 217.256C62.2947 217.613 62.2603 218.156 61.8991 218.465C59.1504 220.854 57.5025 224.531 57.3684 228.559C57.2376 232.586 58.6447 236.363 61.2317 238.92C62.8658 240.546 65.0709 241.913 67.9641 243.102C71.5591 244.584 75.498 245.546 79.3132 246.474C85.8976 248.079 92.7057 249.738 98.0311 254.148C98.3992 254.45 98.4473 254.99 98.1446 255.357C97.9795 255.56 97.7284 255.667 97.4841 255.667Z" fill="#992F03"/>
</g>
<defs>
<clipPath id="clip0">
<rect width="212" height="285" fill="white"/>
</clipPath>
</defs>
</svg>
